<mxfile host="app.diagrams.net" modified="2020-11-19T06:25:17.606Z" agent="5.0 (Macintosh; Intel Mac OS X 11_0_0) AppleWebKit/537.36 (KHTML, like Gecko) Chrome/86.0.4240.198 Safari/537.36" etag="4xpzrub-9bvzsqN-kNwC" version="13.9.9" type="github">
  <diagram id="v3-8B7TfEPP3UOzf9lif" name="Page-1">
    <mxGraphModel dx="1773" dy="614" grid="1" gridSize="10" guides="1" tooltips="1" connect="1" arrows="1" fold="1" page="1" pageScale="1" pageWidth="827" pageHeight="1169" math="0" shadow="0">
      <root>
        <mxCell id="0" />
        <mxCell id="1" parent="0" />
        <mxCell id="NOQsKgZM8t5JPagwq865-31" value="" style="rounded=0;whiteSpace=wrap;html=1;fontSize=16;dashed=1;fillColor=none;strokeWidth=2;strokeColor=#0000FF;" vertex="1" parent="1">
          <mxGeometry x="840" y="70" width="200" height="760" as="geometry" />
        </mxCell>
        <mxCell id="NOQsKgZM8t5JPagwq865-9" value="" style="rounded=0;whiteSpace=wrap;html=1;fontSize=16;dashed=1;fillColor=none;strokeWidth=2;strokeColor=#994C00;" vertex="1" parent="1">
          <mxGeometry x="160" y="70" width="590" height="760" as="geometry" />
        </mxCell>
        <mxCell id="NOQsKgZM8t5JPagwq865-14" style="edgeStyle=orthogonalEdgeStyle;rounded=0;orthogonalLoop=1;jettySize=auto;html=1;exitX=0.5;exitY=1;exitDx=0;exitDy=0;entryX=0.5;entryY=0;entryDx=0;entryDy=0;fontSize=24;" edge="1" parent="1" source="NOQsKgZM8t5JPagwq865-2" target="NOQsKgZM8t5JPagwq865-6">
          <mxGeometry relative="1" as="geometry" />
        </mxCell>
        <mxCell id="NOQsKgZM8t5JPagwq865-2" value="&lt;font style=&quot;font-size: 14px&quot;&gt;&lt;b&gt;定时任务&lt;/b&gt;：generateOutInstruct&lt;br&gt;&lt;b&gt;执行时机&lt;/b&gt;：每天23点13分执行。&lt;/font&gt;" style="html=1;whiteSpace=wrap;rounded=1;dropTarget=0;fontSize=16;align=left;fillColor=#f5f5f5;strokeColor=#666666;fontColor=#333333;" vertex="1" parent="1">
          <mxGeometry x="196.25" y="140" width="212.5" height="60" as="geometry" />
        </mxCell>
        <mxCell id="NOQsKgZM8t5JPagwq865-3" value="" style="shape=mxgraph.bpmn.timer_start;perimeter=ellipsePerimeter;html=1;verticalLabelPosition=bottom;verticalAlign=top;outlineConnect=0;" vertex="1" parent="NOQsKgZM8t5JPagwq865-2">
          <mxGeometry x="1" y="1" width="30" height="30" relative="1" as="geometry">
            <mxPoint x="-40" y="-15" as="offset" />
          </mxGeometry>
        </mxCell>
        <mxCell id="NOQsKgZM8t5JPagwq865-15" style="edgeStyle=orthogonalEdgeStyle;rounded=0;orthogonalLoop=1;jettySize=auto;html=1;exitX=0.5;exitY=1;exitDx=0;exitDy=0;entryX=0.5;entryY=0;entryDx=0;entryDy=0;fontSize=24;" edge="1" parent="1" source="NOQsKgZM8t5JPagwq865-4" target="NOQsKgZM8t5JPagwq865-11">
          <mxGeometry relative="1" as="geometry" />
        </mxCell>
        <mxCell id="NOQsKgZM8t5JPagwq865-4" value="&lt;font style=&quot;font-size: 14px&quot;&gt;&lt;b&gt;定时任务&lt;/b&gt;：generateStationOutInstruct&lt;br&gt;&lt;b&gt;执行时机&lt;/b&gt;：每天18点15分、20点15分、21点15分、22点15分、23点15分。&lt;/font&gt;" style="html=1;whiteSpace=wrap;rounded=1;dropTarget=0;fontSize=16;align=left;fillColor=#f5f5f5;strokeColor=#666666;fontColor=#333333;" vertex="1" parent="1">
          <mxGeometry x="455" y="140" width="290" height="60" as="geometry" />
        </mxCell>
        <mxCell id="NOQsKgZM8t5JPagwq865-5" value="" style="shape=mxgraph.bpmn.timer_start;perimeter=ellipsePerimeter;html=1;verticalLabelPosition=bottom;verticalAlign=top;outlineConnect=0;" vertex="1" parent="NOQsKgZM8t5JPagwq865-4">
          <mxGeometry x="1" y="1" width="30" height="30" relative="1" as="geometry">
            <mxPoint x="-40" y="-15" as="offset" />
          </mxGeometry>
        </mxCell>
        <mxCell id="NOQsKgZM8t5JPagwq865-17" style="edgeStyle=orthogonalEdgeStyle;rounded=0;orthogonalLoop=1;jettySize=auto;html=1;exitX=0.5;exitY=1;exitDx=0;exitDy=0;entryX=0.28;entryY=0;entryDx=0;entryDy=0;entryPerimeter=0;fontSize=24;" edge="1" parent="1" source="NOQsKgZM8t5JPagwq865-6" target="NOQsKgZM8t5JPagwq865-16">
          <mxGeometry relative="1" as="geometry">
            <Array as="points">
              <mxPoint x="300" y="320" />
              <mxPoint x="300" y="360" />
              <mxPoint x="390" y="360" />
            </Array>
          </mxGeometry>
        </mxCell>
        <mxCell id="NOQsKgZM8t5JPagwq865-51" style="edgeStyle=orthogonalEdgeStyle;rounded=0;orthogonalLoop=1;jettySize=auto;html=1;exitX=0;exitY=0.5;exitDx=0;exitDy=0;fontSize=24;" edge="1" parent="1" source="NOQsKgZM8t5JPagwq865-6" target="NOQsKgZM8t5JPagwq865-49">
          <mxGeometry relative="1" as="geometry" />
        </mxCell>
        <mxCell id="NOQsKgZM8t5JPagwq865-6" value="为各仓库生成到团长的出库指令总单" style="rounded=0;whiteSpace=wrap;html=1;fontSize=16;fillColor=#dae8fc;strokeColor=#6c8ebf;" vertex="1" parent="1">
          <mxGeometry x="170" y="260" width="265" height="60" as="geometry" />
        </mxCell>
        <mxCell id="NOQsKgZM8t5JPagwq865-8" value="&lt;font style=&quot;font-size: 14px&quot;&gt;触发&lt;/font&gt;" style="text;html=1;align=center;verticalAlign=middle;resizable=0;points=[];autosize=1;fontSize=16;" vertex="1" parent="1">
          <mxGeometry x="598" y="220" width="40" height="20" as="geometry" />
        </mxCell>
        <mxCell id="NOQsKgZM8t5JPagwq865-10" value="&lt;i&gt;OFC&lt;/i&gt;" style="text;html=1;align=center;verticalAlign=middle;resizable=0;points=[];autosize=1;fontSize=24;" vertex="1" parent="1">
          <mxGeometry x="400" y="90" width="70" height="30" as="geometry" />
        </mxCell>
        <mxCell id="NOQsKgZM8t5JPagwq865-18" style="edgeStyle=orthogonalEdgeStyle;rounded=0;orthogonalLoop=1;jettySize=auto;html=1;exitX=0.5;exitY=1;exitDx=0;exitDy=0;entryX=0.66;entryY=0;entryDx=0;entryDy=0;entryPerimeter=0;fontSize=24;" edge="1" parent="1" source="NOQsKgZM8t5JPagwq865-11" target="NOQsKgZM8t5JPagwq865-16">
          <mxGeometry relative="1" as="geometry">
            <mxPoint x="455" y="380" as="targetPoint" />
            <Array as="points">
              <mxPoint x="600" y="360" />
              <mxPoint x="485" y="360" />
            </Array>
          </mxGeometry>
        </mxCell>
        <mxCell id="NOQsKgZM8t5JPagwq865-11" value="为各仓库生成到网格站的出库指令总单" style="rounded=0;whiteSpace=wrap;html=1;fontSize=16;fillColor=#dae8fc;strokeColor=#6c8ebf;" vertex="1" parent="1">
          <mxGeometry x="460" y="260" width="280" height="60" as="geometry" />
        </mxCell>
        <mxCell id="NOQsKgZM8t5JPagwq865-13" value="&lt;font style=&quot;font-size: 14px&quot;&gt;触发&lt;/font&gt;" style="text;html=1;align=center;verticalAlign=middle;resizable=0;points=[];autosize=1;fontSize=16;" vertex="1" parent="1">
          <mxGeometry x="300" y="220" width="40" height="20" as="geometry" />
        </mxCell>
        <mxCell id="NOQsKgZM8t5JPagwq865-26" style="edgeStyle=orthogonalEdgeStyle;rounded=0;orthogonalLoop=1;jettySize=auto;html=1;exitX=0.5;exitY=1;exitDx=0;exitDy=0;exitPerimeter=0;entryX=0.5;entryY=0;entryDx=0;entryDy=0;fontSize=24;" edge="1" parent="1" source="NOQsKgZM8t5JPagwq865-16" target="NOQsKgZM8t5JPagwq865-25">
          <mxGeometry relative="1" as="geometry" />
        </mxCell>
        <mxCell id="NOQsKgZM8t5JPagwq865-16" value="&lt;font style=&quot;font-size: 16px&quot;&gt;Topic：ofc_out_instruct_generate&lt;/font&gt;" style="strokeWidth=1;html=1;shape=mxgraph.flowchart.direct_data;whiteSpace=wrap;fillColor=#fff2cc;fontSize=24;strokeColor=#d6b656;" vertex="1" parent="1">
          <mxGeometry x="320" y="380" width="250" height="40" as="geometry" />
        </mxCell>
        <mxCell id="NOQsKgZM8t5JPagwq865-22" value="&lt;font style=&quot;font-size: 12px&quot;&gt;总单&lt;/font&gt;" style="shape=note;whiteSpace=wrap;html=1;backgroundOutline=1;darkOpacity=0.05;strokeWidth=1;fontSize=24;size=13;" vertex="1" parent="1">
          <mxGeometry x="264.5" y="330" width="30" height="40" as="geometry" />
        </mxCell>
        <mxCell id="NOQsKgZM8t5JPagwq865-24" value="&lt;font style=&quot;font-size: 12px&quot;&gt;总单&lt;/font&gt;" style="shape=note;whiteSpace=wrap;html=1;backgroundOutline=1;darkOpacity=0.05;strokeWidth=1;fontSize=24;size=13;" vertex="1" parent="1">
          <mxGeometry x="606" y="330" width="30" height="40" as="geometry" />
        </mxCell>
        <mxCell id="NOQsKgZM8t5JPagwq865-29" style="edgeStyle=orthogonalEdgeStyle;rounded=0;orthogonalLoop=1;jettySize=auto;html=1;exitX=0.5;exitY=1;exitDx=0;exitDy=0;entryX=0;entryY=0.5;entryDx=0;entryDy=0;entryPerimeter=0;fontSize=24;" edge="1" parent="1" source="NOQsKgZM8t5JPagwq865-25" target="NOQsKgZM8t5JPagwq865-28">
          <mxGeometry relative="1" as="geometry">
            <Array as="points">
              <mxPoint x="445" y="605" />
            </Array>
          </mxGeometry>
        </mxCell>
        <mxCell id="NOQsKgZM8t5JPagwq865-54" style="edgeStyle=orthogonalEdgeStyle;rounded=0;orthogonalLoop=1;jettySize=auto;html=1;exitX=0;exitY=0.5;exitDx=0;exitDy=0;fontSize=24;" edge="1" parent="1" source="NOQsKgZM8t5JPagwq865-25" target="NOQsKgZM8t5JPagwq865-49">
          <mxGeometry relative="1" as="geometry" />
        </mxCell>
        <mxCell id="NOQsKgZM8t5JPagwq865-25" value="为每个出库指令总单生成出库指令子单（出库商品明细）" style="rounded=0;whiteSpace=wrap;html=1;fontSize=16;fillColor=#dae8fc;strokeColor=#6c8ebf;" vertex="1" parent="1">
          <mxGeometry x="295" y="480" width="300" height="60" as="geometry" />
        </mxCell>
        <mxCell id="NOQsKgZM8t5JPagwq865-27" value="&lt;font style=&quot;font-size: 12px&quot;&gt;总单&lt;/font&gt;" style="shape=note;whiteSpace=wrap;html=1;backgroundOutline=1;darkOpacity=0.05;strokeWidth=1;fontSize=24;size=13;" vertex="1" parent="1">
          <mxGeometry x="455" y="430" width="30" height="40" as="geometry" />
        </mxCell>
        <mxCell id="NOQsKgZM8t5JPagwq865-34" style="edgeStyle=orthogonalEdgeStyle;rounded=0;orthogonalLoop=1;jettySize=auto;html=1;exitX=1;exitY=0.5;exitDx=0;exitDy=0;exitPerimeter=0;entryX=0.5;entryY=0;entryDx=0;entryDy=0;fontSize=24;" edge="1" parent="1" source="NOQsKgZM8t5JPagwq865-28" target="NOQsKgZM8t5JPagwq865-32">
          <mxGeometry relative="1" as="geometry" />
        </mxCell>
        <mxCell id="NOQsKgZM8t5JPagwq865-28" value="&lt;font style=&quot;font-size: 16px&quot;&gt;Topic：ofc_out_instruct_syn&lt;/font&gt;" style="strokeWidth=1;html=1;shape=mxgraph.flowchart.direct_data;whiteSpace=wrap;fillColor=#fff2cc;fontSize=24;strokeColor=#d6b656;" vertex="1" parent="1">
          <mxGeometry x="680" y="585" width="220" height="40" as="geometry" />
        </mxCell>
        <mxCell id="NOQsKgZM8t5JPagwq865-30" value="&lt;span style=&quot;font-size: 12px&quot;&gt;包含子单的总单&lt;/span&gt;" style="shape=note;whiteSpace=wrap;html=1;backgroundOutline=1;darkOpacity=0.05;strokeWidth=1;fontSize=24;size=13;" vertex="1" parent="1">
          <mxGeometry x="455" y="560" width="90" height="35" as="geometry" />
        </mxCell>
        <mxCell id="NOQsKgZM8t5JPagwq865-37" style="edgeStyle=orthogonalEdgeStyle;rounded=0;orthogonalLoop=1;jettySize=auto;html=1;exitX=0.5;exitY=1;exitDx=0;exitDy=0;entryX=1;entryY=0.5;entryDx=0;entryDy=0;fontSize=24;" edge="1" parent="1" source="NOQsKgZM8t5JPagwq865-32" target="NOQsKgZM8t5JPagwq865-36">
          <mxGeometry relative="1" as="geometry" />
        </mxCell>
        <mxCell id="NOQsKgZM8t5JPagwq865-32" value="接收指令，出库" style="rounded=0;whiteSpace=wrap;html=1;fontSize=16;fillColor=#dae8fc;strokeColor=#6c8ebf;" vertex="1" parent="1">
          <mxGeometry x="865" y="660" width="150" height="60" as="geometry" />
        </mxCell>
        <mxCell id="NOQsKgZM8t5JPagwq865-35" value="&lt;span style=&quot;font-size: 12px&quot;&gt;包含子单的总单&lt;/span&gt;" style="shape=note;whiteSpace=wrap;html=1;backgroundOutline=1;darkOpacity=0.05;strokeWidth=1;fontSize=24;size=13;" vertex="1" parent="1">
          <mxGeometry x="944" y="610" width="90" height="35" as="geometry" />
        </mxCell>
        <mxCell id="NOQsKgZM8t5JPagwq865-36" value="更新出库指令状态" style="rounded=0;whiteSpace=wrap;html=1;fontSize=16;fillColor=#dae8fc;strokeColor=#6c8ebf;" vertex="1" parent="1">
          <mxGeometry x="367.5" y="750" width="155" height="60" as="geometry" />
        </mxCell>
        <mxCell id="NOQsKgZM8t5JPagwq865-38" value="&lt;font style=&quot;font-size: 12px&quot;&gt;出库完成，回调&lt;/font&gt;" style="text;html=1;align=center;verticalAlign=middle;resizable=0;points=[];autosize=1;fontSize=24;" vertex="1" parent="1">
          <mxGeometry x="840" y="740" width="100" height="40" as="geometry" />
        </mxCell>
        <mxCell id="NOQsKgZM8t5JPagwq865-46" value="&lt;i&gt;WMS&lt;/i&gt;" style="text;html=1;align=center;verticalAlign=middle;resizable=0;points=[];autosize=1;fontSize=24;" vertex="1" parent="1">
          <mxGeometry x="905" y="90" width="70" height="30" as="geometry" />
        </mxCell>
        <mxCell id="NOQsKgZM8t5JPagwq865-47" value="" style="rounded=0;whiteSpace=wrap;html=1;fontSize=16;dashed=1;fillColor=none;strokeWidth=2;strokeColor=#006600;" vertex="1" parent="1">
          <mxGeometry x="-65" y="70" width="130" height="760" as="geometry" />
        </mxCell>
        <mxCell id="NOQsKgZM8t5JPagwq865-48" value="&lt;i&gt;OMS&lt;/i&gt;" style="text;html=1;align=center;verticalAlign=middle;resizable=0;points=[];autosize=1;fontSize=24;" vertex="1" parent="1">
          <mxGeometry x="-35" y="90" width="70" height="30" as="geometry" />
        </mxCell>
        <mxCell id="NOQsKgZM8t5JPagwq865-49" value="API" style="rounded=0;whiteSpace=wrap;html=1;fontSize=16;fillColor=#dae8fc;strokeColor=#6c8ebf;" vertex="1" parent="1">
          <mxGeometry x="-50" y="260" width="100" height="60" as="geometry" />
        </mxCell>
        <mxCell id="NOQsKgZM8t5JPagwq865-52" value="&lt;font style=&quot;font-size: 14px&quot;&gt;查询有销量的团长&lt;/font&gt;" style="text;html=1;align=center;verticalAlign=middle;resizable=0;points=[];autosize=1;fontSize=24;" vertex="1" parent="1">
          <mxGeometry x="42.5" y="250" width="130" height="40" as="geometry" />
        </mxCell>
        <mxCell id="NOQsKgZM8t5JPagwq865-55" value="&lt;font style=&quot;font-size: 14px&quot;&gt;查询团长或网格站的销量&lt;/font&gt;" style="text;html=1;align=center;verticalAlign=middle;resizable=0;points=[];autosize=1;fontSize=24;" vertex="1" parent="1">
          <mxGeometry x="125" y="470" width="170" height="40" as="geometry" />
        </mxCell>
      </root>
    </mxGraphModel>
  </diagram>
</mxfile>
